<svg id="visual" viewBox="0 0 1280 700" width="1280" height="700" xmlns="http://www.w3.org/2000/svg" xmlns:xlink="http://www.w3.org/1999/xlink" version="1.1"><g><g transform="translate(193 364)"><path d="M0 -51.7L44.8 -25.9L44.8 25.9L0 51.7L-44.8 25.9L-44.8 -25.9Z" fill="#baf6f1"></path></g><g transform="translate(380 592)"><path d="M0 -27L23.4 -13.5L23.4 13.5L0 27L-23.4 13.5L-23.4 -13.5Z" fill="#baf6f1"></path></g><g transform="translate(199 539)"><path d="M0 -29L25.1 -14.5L25.1 14.5L0 29L-25.1 14.5L-25.1 -14.5Z" fill="#baf6f1"></path></g><g transform="translate(116 603)"><path d="M0 -48L41.6 -24L41.6 24L0 48L-41.6 24L-41.6 -24Z" fill="#baf6f1"></path></g><g transform="translate(1036 365)"><path d="M0 -33L28.6 -16.5L28.6 16.5L0 33L-28.6 16.5L-28.6 -16.5Z" fill="#baf6f1"></path></g><g transform="translate(83 202)"><path d="M0 -37L32 -18.5L32 18.5L0 37L-32 18.5L-32 -18.5Z" fill="#baf6f1"></path></g><g transform="translate(859 388)"><path d="M0 -25L21.7 -12.5L21.7 12.5L0 25L-21.7 12.5L-21.7 -12.5Z" fill="#baf6f1"></path></g><g transform="translate(381 341)"><path d="M0 -25L21.7 -12.5L21.7 12.5L0 25L-21.7 12.5L-21.7 -12.5Z" fill="#baf6f1"></path></g><g transform="translate(430 219)"><path d="M0 -50L43.3 -25L43.3 25L0 50L-43.3 25L-43.3 -25Z" fill="#baf6f1"></path></g><g transform="translate(970 91)"><path d="M0 -32L27.7 -16L27.7 16L0 32L-27.7 16L-27.7 -16Z" fill="#baf6f1"></path></g><g transform="translate(654 329)"><path d="M0 -36L31.2 -18L31.2 18L0 36L-31.2 18L-31.2 -18Z" fill="#baf6f1"></path></g><g transform="translate(805 569)"><path d="M0 -41L35.5 -20.5L35.5 20.5L0 41L-35.5 20.5L-35.5 -20.5Z" fill="#baf6f1"></path></g><g transform="translate(449 447)"><path d="M0 -47L40.7 -23.5L40.7 23.5L0 47L-40.7 23.5L-40.7 -23.5Z" fill="#baf6f1"></path></g><g transform="translate(622 62)"><path d="M0 -33L28.6 -16.5L28.6 16.5L0 33L-28.6 16.5L-28.6 -16.5Z" fill="#baf6f1"></path></g><g transform="translate(1061 606)"><path d="M0 -45L39 -22.5L39 22.5L0 45L-39 22.5L-39 -22.5Z" fill="#baf6f1"></path></g><g transform="translate(340 485)"><path d="M0 -31L26.8 -15.5L26.8 15.5L0 31L-26.8 15.5L-26.8 -15.5Z" fill="#baf6f1"></path></g><g transform="translate(1024 206)"><path d="M0 -47L40.7 -23.5L40.7 23.5L0 47L-40.7 23.5L-40.7 -23.5Z" fill="#baf6f1"></path></g><g transform="translate(1200 256)"><path d="M0 -26L22.5 -13L22.5 13L0 26L-22.5 13L-22.5 -13Z" fill="#baf6f1"></path></g></g></svg>