<svg id="visual" viewBox="0 0 1280 540" width="1280" height="540" xmlns="http://www.w3.org/2000/svg" xmlns:xlink="http://www.w3.org/1999/xlink" version="1.1"><g><g transform="translate(491 406)"><path d="M0 -67.8L58.7 -33.9L58.7 33.9L0 67.8L-58.7 33.9L-58.7 -33.9Z" fill="#297EA6"></path></g><g transform="translate(674 417)"><path d="M0 -36L31.2 -18L31.2 18L0 36L-31.2 18L-31.2 -18Z" fill="#297EA6"></path></g><g transform="translate(144 346)"><path d="M0 -62L53.7 -31L53.7 31L0 62L-53.7 31L-53.7 -31Z" fill="#297EA6"></path></g><g transform="translate(1033 377)"><path d="M0 -44L38.1 -22L38.1 22L0 44L-38.1 22L-38.1 -22Z" fill="#297EA6"></path></g><g transform="translate(361 301)"><path d="M0 -62L53.7 -31L53.7 31L0 62L-53.7 31L-53.7 -31Z" fill="#297EA6"></path></g><g transform="translate(488 177)"><path d="M0 -40L34.6 -20L34.6 20L0 40L-34.6 20L-34.6 -20Z" fill="#297EA6"></path></g><g transform="translate(617 102)"><path d="M0 -56L48.5 -28L48.5 28L0 56L-48.5 28L-48.5 -28Z" fill="#297EA6"></path></g><g transform="translate(761 221)"><path d="M0 -51L44.2 -25.5L44.2 25.5L0 51L-44.2 25.5L-44.2 -25.5Z" fill="#297EA6"></path></g><g transform="translate(857 463)"><path d="M0 -42L36.4 -21L36.4 21L0 42L-36.4 21L-36.4 -21Z" fill="#297EA6"></path></g></g></svg>